General
Complete name                    : Robin Hood_Prince of Thieves.mkv
Format                           : Matroska
File size                        : 2.22 GiB
Duration                         : 2h 17mn
Overall bit rate                 : 2 321 Kbps


Video
ID                               : 1

Duration                         : 2h 17mn
Bit rate                         : 1 826 Kbps
Width                            : 670 pixels
Height                           : 406 pixels
Display aspect ratio             : 16:9
Original display aspect ratio    : 16:9
Frame rate                       : 25.000 fps
Resolution                       : 8 bits
Colorimetry                      : 4:2:0
Scan type                        : Progressive
Bits/(Pixel*Frame)               : 0.269
Stream size                      : 1.75 GiB (79%)
Writing library                  : x264 core 79


Audio #1
ID                               : 2
Format                           : AC-3
Format/Info                      : Audio Coding 3
Format profile                   : Dolby Digital
Codec ID                         : A_AC3
Duration                         : 2h 17mn
Bit rate mode                    : Constant
Bit rate                         : 192 Kbps
Channel(s)                       : 2 channels
Channel positions                : L R
Sampling rate                    : 48.0 KHz
Stream size                      : 188 MiB (8%)
Language                         : English

Audio #2
ID                               : 3
Format                           : MPEG Audio
Format version                   : Version 1
Format profile                   : Layer 3
Mode                             : Joint stereo / MS Stereo
Codec ID                         : A_MPEG/L3
Codec ID/Hint                    : MP3
Duration                         : 2h 17mn
Bit rate mode                    : Constant
Bit rate                         : 128 Kbps
Channel(s)                       : 2 channels
Sampling rate                    : 48.0 KHz
Stream size                      : 126 MiB (6%)
Writing library                  : LAME3.98
Language                         : German

Audio #3
ID                               : 4
Format                           : MPEG Audio
Format version                   : Version 1
Format profile                   : Layer 3
Mode                             : Joint stereo
Codec ID                         : A_MPEG/L3
Codec ID/Hint                    : MP3
Duration                         : 2h 17mn
Bit rate mode                    : Constant
Bit rate                         : 128 Kbps
Channel(s)                       : 2 channels
Sampling rate                    : 48.0 KHz
Stream size                      : 126 MiB (6%)
Language                         : Spanish

Text #1
Language                         : English

Text #2
Language                         : German

Text #3
Language                         : Spanish

Text #4
Language                         : Dutch

Text #5
Language                         : Swedish

Text #6
Language                         : Norwegian

Text #7
Language                         : Danish

Text #8
Language                         : Finnish

Text #9
Language                         : Portuguese

Text #10
Language                         : xxxx??


Text #11
Language                         : Polish

Text #12
Language                         : Greek

Text #13
Language                         : Czech

Text #14
Language                         : Turkish

Text #15
Language                         : Hungarian

Text #16
Language                         : Icelandic

Text #17
Language                         : Croatian

Text #18
Language                         : French

Text #19
Language                         : Italian

Text #20
Language                         : English

Text #21
Language                         : German


